<?xml version="1.0" encoding="utf-8"?>
<!-- Generator: Adobe Illustrator 22.1.0, SVG Export Plug-In . SVG Version: 6.00 Build 0)  -->
<svg version="1.1" id="Layer_1" xmlns="http://www.w3.org/2000/svg" xmlns:xlink="http://www.w3.org/1999/xlink" x="0px" y="0px"
	 viewBox="0 0 530.5 130.7" style="enable-background:new 0 0 530.5 130.7;" xml:space="preserve">
<style type="text/css">
	.st0{fill:#221F1F;}
	.st1{fill:#35BDB2;}
</style>
<g>
	<g>
		<path class="st0" d="M53.7,87.3c-11.1,0-17.1-3.7-18.5-11.2l-0.1-0.8l2.7-0.6l0.1,0.8c1.1,6.1,6.3,9,15.8,9
			c3.5,0,14.9-0.7,14.9-9.6v-0.5c0-5.3-2.9-7.8-11.5-9.8l-7.9-1.9c-7.7-1.8-12.8-4.3-12.8-10.2c0-8.1,9.2-11,17-11
			c8.2,0,13.1,2.9,15.9,9.5l0.3,0.8l-2.5,0.9L67,52c-1.6-3.8-4.4-7.7-13.4-7.7c-6.6,0-14.3,2.2-14.3,8.3c0,3.8,2.5,5.6,10.7,7.6
			l7.9,1.9c8.4,2,13.6,4.8,13.6,12.5V75C71.3,86.4,57.9,87.3,53.7,87.3z"/>
	</g>
	<g>
		<path class="st0" d="M116.7,86.8c-1.1,0-2.1-0.8-2.6-1.8l-10.6-25.8c0.1-0.1,0-0.1,0,0L93,84.9c-0.5,1.1-1.5,1.8-2.5,1.8
			c-1,0-2.1-0.9-2.5-1.9L70.9,42.1h2.8l16.8,41.8c0,0,0,0.1,0,0.1c0,0,0-0.1,0.1-0.1L101,58.1c0.4-1,1.5-1.8,2.5-1.8
			c1.1,0,2.1,0.7,2.5,1.9l10.6,25.8c0,0,0,0.1,0.1,0.1c0,0,0-0.1,0-0.1l16.7-41.8h2.9l-17.1,42.8C118.7,85.9,117.6,86.8,116.7,86.8z
			"/>
	</g>
	<g>
		<path class="st0" d="M171.2,86.7H137V45.1c0-1.7,1.3-3,2.9-3h30.8v2.7h-30.8c-0.2,0-0.2,0.2-0.2,0.3v18.1h31.4v2.7h-31.4V84h31.4
			V86.7z"/>
	</g>
	<g>
		<path class="st0" d="M207.4,86.7h-34.2V45.1c0-1.7,1.3-3,2.9-3h30.8v2.7h-30.8c-0.2,0-0.2,0.2-0.2,0.3v18.1h31.4v2.7h-31.4V84
			h31.4V86.7z"/>
	</g>
	<g>
		<polygon class="st0" points="227.8,86.7 225,86.7 225,44.8 207,44.8 207,42.1 245.8,42.1 245.8,44.8 227.8,44.8 		"/>
	</g>
	<g>
		<path class="st0" d="M282.5,86.7h-30.8c-1.7,0-3-1.3-3-3V42.1h2.7v41.7c0,0.2,0.1,0.3,0.3,0.3h30.8V86.7z"/>
	</g>
	<g>
		<path class="st0" d="M317.5,86.7h-34.2V45.1c0-1.7,1.3-3,2.9-3h30.8v2.7h-30.8c-0.2,0-0.2,0.2-0.2,0.3v18.1h31.4v2.7H286V84h31.4
			V86.7z"/>
	</g>
	<g>
		<path class="st0" d="M341.2,87.3c-12.6,0-22.9-10.3-22.9-22.9c0-12.6,10.3-22.9,22.9-22.9c7.1,0,14,3.5,18.3,9.2l0.5,0.7l-2.2,1.6
			l-0.5-0.6c-3.8-5.1-9.8-8.1-16.1-8.1c-11.1,0-20.2,9.1-20.2,20.2c0,11.1,9.1,20.1,20.2,20.1c11.1,0,20.1-9,20.1-20.1
			c0-0.6-0.2-0.6-0.4-0.6h-18.7v-2.7h18.7c2,0,3.1,1.2,3.1,3.3C364.1,77,353.8,87.3,341.2,87.3z"/>
	</g>
	<g>
		<path class="st0" d="M383.4,87.3c-11.1,0-17.1-3.7-18.5-11.2l-0.1-0.8l2.7-0.6l0.1,0.8c1.1,6.1,6.3,9,15.8,9
			c3.5,0,14.9-0.7,14.9-9.6v-0.5c0-5.3-2.9-7.8-11.5-9.8l-7.9-1.9c-7.7-1.8-12.8-4.3-12.8-10.2c0-8.1,9.2-11,17.1-11
			c8.2,0,13.1,2.9,15.9,9.5l0.3,0.8l-2.5,0.9l-0.3-0.7c-1.6-3.8-4.4-7.7-13.4-7.7c-6.6,0-14.3,2.2-14.3,8.3c0,3.8,2.5,5.6,10.7,7.6
			l7.9,1.9c8.4,2,13.6,4.8,13.6,12.5V75C401,86.4,387.5,87.3,383.4,87.3z"/>
	</g>
	<path class="st1" d="M497.9,93.2l-32-33l7.7-20.5c0.1-0.3,0-0.6-0.3-0.8c-0.2-0.2-0.6-0.1-0.8,0.1l-14,13.6l-13.2-13.6
		c-0.2-0.2-0.5-0.3-0.8-0.1c-0.3,0.2-0.4,0.5-0.3,0.8l6.9,20.2l-32.8,31.9c-0.2,0.2-0.3,0.5-0.1,0.8c0.1,0.2,0.3,0.3,0.5,0.3
		c0.1,0,0.1,0,0.2,0l38.9-13.7c0,0,0,0,0.1,0l39.3,15.2c0.1,0,0.2,0,0.2,0c0.2,0,0.4-0.1,0.5-0.3C498.2,93.8,498.2,93.5,497.9,93.2z
		 M471.4,42L465,59.3l-5.5-5.7L471.4,42z M446.4,42l11.2,11.6l-5.5,5.3L446.4,42z M421.4,90.6l30.3-29.4l5.7,16.8L421.4,90.6z
		 M452.6,60.2l5.9-5.8l5.9,6.1l-6.1,16.4L452.6,60.2z M459.2,78.3l6.2-16.7L495,92.1L459.2,78.3z"/>
</g>
<g>
	<path d="M406.8,44.4c0,0.5-0.1,1-0.4,1.5c-0.3,0.5-0.6,0.8-1.1,1.1s-0.9,0.4-1.5,0.4s-1-0.1-1.5-0.4c-0.5-0.3-0.8-0.6-1.1-1.1
		s-0.4-0.9-0.4-1.5c0-0.5,0.1-1,0.4-1.5c0.3-0.5,0.6-0.8,1.1-1.1c0.5-0.3,0.9-0.4,1.5-0.4s1,0.1,1.5,0.4c0.5,0.3,0.8,0.6,1.1,1.1
		C406.7,43.4,406.8,43.9,406.8,44.4z M406.4,44.4c0-0.4-0.1-0.9-0.3-1.3c-0.2-0.4-0.5-0.7-0.9-0.9c-0.4-0.2-0.8-0.3-1.2-0.3
		c-0.4,0-0.9,0.1-1.3,0.3c-0.4,0.2-0.7,0.5-0.9,0.9c-0.2,0.4-0.3,0.8-0.3,1.3c0,0.4,0.1,0.9,0.3,1.3s0.5,0.7,0.9,0.9
		c0.4,0.2,0.8,0.3,1.3,0.3c0.4,0,0.9-0.1,1.2-0.3c0.4-0.2,0.7-0.5,0.9-0.9C406.3,45.3,406.4,44.9,406.4,44.4z M402.6,42.7h1.4
		c0.3,0,0.6,0,0.7,0.1c0.1,0.1,0.3,0.2,0.4,0.3s0.1,0.3,0.1,0.5c0,0.2,0,0.3-0.1,0.4c0,0.1-0.2,0.2-0.3,0.3c0.2,0.1,0.3,0.2,0.3,0.3
		s0.1,0.3,0.1,0.5v0.4c0,0.2,0,0.3,0.1,0.4l0.1,0.1h-0.6c0-0.1-0.1-0.3-0.1-0.5l0-0.4c0-0.2,0-0.3-0.1-0.3c0-0.1-0.1-0.1-0.2-0.1
		s-0.2,0-0.4,0h-0.8v1.4h-0.5V42.7z M403.2,43.2v1h0.8c0.2,0,0.4,0,0.5-0.1c0.1-0.1,0.2-0.2,0.2-0.4c0-0.2,0-0.3-0.1-0.4
		c-0.1-0.1-0.3-0.1-0.5-0.1H403.2z"/>
</g>
<g>
	<path class="st1" d="M482.9,44.4c0,0.5-0.1,1-0.4,1.5c-0.3,0.5-0.6,0.8-1.1,1.1s-0.9,0.4-1.5,0.4s-1-0.1-1.5-0.4
		c-0.5-0.3-0.8-0.6-1.1-1.1S477,45,477,44.4c0-0.5,0.1-1,0.4-1.5c0.3-0.5,0.6-0.8,1.1-1.1c0.5-0.3,0.9-0.4,1.5-0.4s1,0.1,1.5,0.4
		c0.5,0.3,0.8,0.6,1.1,1.1C482.7,43.4,482.9,43.9,482.9,44.4z M482.5,44.4c0-0.4-0.1-0.9-0.3-1.3c-0.2-0.4-0.5-0.7-0.9-0.9
		c-0.4-0.2-0.8-0.3-1.2-0.3c-0.4,0-0.9,0.1-1.3,0.3c-0.4,0.2-0.7,0.5-0.9,0.9c-0.2,0.4-0.3,0.8-0.3,1.3c0,0.4,0.1,0.9,0.3,1.3
		s0.5,0.7,0.9,0.9c0.4,0.2,0.8,0.3,1.3,0.3c0.4,0,0.9-0.1,1.2-0.3c0.4-0.2,0.7-0.5,0.9-0.9C482.4,45.3,482.5,44.9,482.5,44.4z
		 M478.7,42.7h1.4c0.3,0,0.6,0,0.7,0.1c0.1,0.1,0.3,0.2,0.4,0.3s0.1,0.3,0.1,0.5c0,0.2,0,0.3-0.1,0.4c0,0.1-0.2,0.2-0.3,0.3
		c0.2,0.1,0.3,0.2,0.3,0.3s0.1,0.3,0.1,0.5v0.4c0,0.2,0,0.3,0.1,0.4l0.1,0.1h-0.6c0-0.1-0.1-0.3-0.1-0.5l0-0.4c0-0.2,0-0.3-0.1-0.3
		c0-0.1-0.1-0.1-0.2-0.1s-0.2,0-0.4,0h-0.8v1.4h-0.5V42.7z M479.3,43.2v1h0.8c0.2,0,0.4,0,0.5-0.1c0.1-0.1,0.2-0.2,0.2-0.4
		c0-0.2,0-0.3-0.1-0.4c-0.1-0.1-0.3-0.1-0.5-0.1H479.3z"/>
</g>
</svg>
